<svg width="355.6781005859375px" height="331.0400146484375px" xmlns="http://www.w3.org/2000/svg" viewBox="72.16094970703125 -90.52000732421874 355.6781005859375 331.0400146484375" style="background: rgb(29, 46, 74);" preserveAspectRatio="xMidYMid"><defs><filter id="editing-hole" x="-100%" y="-100%" width="300%" height="300%"><feFlood flood-color="#000000" result="black"></feFlood><feMorphology operator="dilate" radius="2" in="SourceGraphic" result="erode"></feMorphology><feGaussianBlur in="erode" stdDeviation="4" result="blur"></feGaussianBlur><feOffset in="blur" dx="2" dy="2" result="offset"></feOffset><feComposite operator="atop" in="offset" in2="black" result="merge"></feComposite><feComposite operator="in" in="merge" in2="SourceGraphic" result="inner-shadow"></feComposite></filter></defs><g filter="url(#editing-hole)"><g transform="translate(120.91179180145264, 142.0999984741211)"><path d="M53 4L53 4Q32 4 20.90-3.30L20.90-3.30L20.90-3.30Q9.80-10.60 9.80-24.80L9.80-24.80L9.80-24.80Q9.80-32 14.70-36.70L14.70-36.70L14.70-36.70Q19.60-41.40 27.40-41.40L27.40-41.40L27.40-41.40Q32-41.20 34.40-39.10L34.40-39.10L34.40-39.10Q36.80-37 36.80-35.20L36.80-35.20L36.80-35.20Q36.80-35 34.80-33.80L34.80-33.80L34.80-33.80Q32.80-32.60 31.20-30.20L31.20-30.20L31.20-30.20Q29.60-27.80 29.60-23.60L29.60-23.60L29.60-23.60Q29.60-14.20 35.30-9.10L35.30-9.10L35.30-9.10Q41-4 53-4L53-4L53-4Q61.20-4 67.40-7.20L67.40-7.20L67.40-7.20Q73.60-10.40 76.90-15.70L76.90-15.70L76.90-15.70Q80.20-21 80.20-26.80L80.20-26.80L80.20-26.80Q80.20-34 76.10-39.20L76.10-39.20L76.10-39.20Q72-44.40 66-47.90L66-47.90L66-47.90Q60-51.40 49.60-56L49.60-56L49.60-56Q37.60-61.40 30.20-65.80L30.20-65.80L30.20-65.80Q22.80-70.20 17.60-77.50L17.60-77.50L17.60-77.50Q12.40-84.80 12.40-95.60L12.40-95.60L12.40-95.60Q12.40-113 24.30-121.60L24.30-121.60L24.30-121.60Q36.20-130.20 55.60-130.20L55.60-130.20L55.60-130.20Q70.80-130.20 82.10-123.80L82.10-123.80L82.10-123.80Q93.40-117.40 93.40-105L93.40-105L93.40-105Q93.40-97.80 88.50-93.10L88.50-93.10L88.50-93.10Q83.60-88.40 75.80-88.40L75.80-88.40L75.80-88.40Q71.20-88.60 68.80-90.70L68.80-90.70L68.80-90.70Q66.40-92.80 66.40-94.60L66.40-94.60L66.40-94.60Q66.40-94.80 69.10-96L69.10-96L69.10-96Q71.80-97.20 73.90-99.60L73.90-99.60L73.90-99.60Q76-102 76-106.20L76-106.20L76-106.20Q76-113.60 70.30-117.80L70.30-117.80L70.30-117.80Q64.60-122 55.80-122L55.80-122L55.80-122Q43.60-122 37.30-116.30L37.30-116.30L37.30-116.30Q31-110.60 31-102.20L31-102.20L31-102.20Q31-95.20 34.80-90.50L34.80-90.50L34.80-90.50Q38.60-85.80 47-81.20L47-81.20L47-81.20Q53.80-77.60 61.80-74L61.80-74L61.80-74Q74.60-68.20 82.10-63.40L82.10-63.40L82.10-63.40Q89.60-58.60 94.70-50.80L94.70-50.80L94.70-50.80Q99.80-43 99.80-31.40L99.80-31.40L99.80-31.40Q99.80-21.40 93.50-13.30L93.50-13.30L93.50-13.30Q87.20-5.20 76.50-0.60L76.50-0.60L76.50-0.60Q65.80 4 53 4L53 4ZM121.20 0.60L121.20 0.60Q119.40 0.60 118.50-0.70L118.50-0.70L118.50-0.70Q117.60-2 117.60-3.80L117.60-3.80L117.60-3.80Q117.80-6.80 118.80-7.40L118.80-7.40L118.80-7.40Q119.80-8 122.60-8L122.60-8L122.60-8Q128.40-8 131.20-10.10L131.20-10.10L131.20-10.10Q134-12.20 134.70-15.30L134.70-15.30L134.70-15.30Q135.40-18.40 135.60-23.40L135.60-23.40L135.60-102.80L135.60-102.80Q135.40-107.80 134.70-110.90L134.70-110.90L134.70-110.90Q134-114 131.20-116.10L131.20-116.10L131.20-116.10Q128.40-118.20 122.60-118.20L122.60-118.20L121.40-118.20L121.40-118.20Q119.40-118.20 118.60-118.90L118.60-118.90L118.60-118.90Q117.80-119.60 117.60-122.40L117.60-122.40L117.60-122.40Q117.60-124.20 118.50-125.50L118.50-125.50L118.50-125.50Q119.40-126.80 121.20-126.80L121.20-126.80L121.20-126.80Q134.20-126.20 144.80-126.20L144.80-126.20L144.80-126.20Q156.80-126.20 169.80-126.80L169.80-126.80L169.80-126.80Q171.60-126.80 172.50-125.50L172.50-125.50L172.50-125.50Q173.40-124.20 173.40-122.40L173.40-122.40L173.40-122.40Q173.20-119.40 172.20-118.80L172.20-118.80L172.20-118.80Q171.20-118.20 168.40-118.20L168.40-118.20L168.40-118.20Q162.60-118.20 159.80-116.10L159.80-116.10L159.80-116.10Q157-114 156.30-110.90L156.30-110.90L156.30-110.90Q155.60-107.80 155.40-102.80L155.40-102.80L155.40-66.60L155.40-66.60Q158.60-67.20 162.60-70L162.60-70L162.60-70Q166.60-72.80 172.40-77.80L172.40-77.80L172.40-77.80Q183.60-88.20 200.60-108.40L200.60-108.40L200.60-108.40Q204.20-112.40 204.20-114.80L204.20-114.80L204.20-114.80Q204.20-117.80 198.80-118L198.80-118L198.80-118Q197.40-118.20 196.90-119.10L196.90-119.10L196.90-119.10Q196.40-120 196-122.20L196-122.20L196-122.20Q196-124 197-125.40L197-125.40L197-125.40Q198-126.80 199.60-126.80L199.60-126.80L199.60-126.80Q206.60-126.20 221.60-126.20L221.60-126.20L221.60-126.20Q226.40-126.20 235.60-126.60L235.60-126.60L239.80-126.80L239.80-126.80Q241.60-126.80 242.60-125.50L242.60-125.50L242.60-125.50Q243.60-124.20 243.60-122.20L243.60-122.20L243.60-122.20Q243.40-119.40 242.40-118.70L242.40-118.70L242.40-118.70Q241.40-118 239.60-118L239.60-118L239.60-118Q231.60-118.40 224.50-115.40L224.50-115.40L224.50-115.40Q217.40-112.40 209.60-104.60L209.60-104.60L177.20-70.80L177.20-70.80Q184.20-62.20 191.60-54.40L191.60-54.40L191.60-54.40Q199-46.60 209.40-36.20L209.40-36.20L209.40-36.20Q214.60-31 221.80-23.40L221.80-23.40L221.80-23.40Q224-21.20 224.80-20.20L224.80-20.20L224.80-20.20Q231.20-13.80 234.90-11.20L234.90-11.20L234.90-11.20Q238.60-8.60 244-8L244-8L244-8Q244.40-8 245.80-7.90L245.80-7.90L245.80-7.90Q247.20-7.80 248.10-6.80L248.10-6.80L248.10-6.80Q249-5.80 249-3.80L249-3.80L249-3.80Q249-2 248.10-0.70L248.10-0.70L248.10-0.70Q247.20 0.60 245.40 0.60L245.40 0.60L245.40 0.60Q243 0.40 239.60 0.40L239.60 0.40L239.60 0.40Q232.40 0 228.40 0L228.40 0L215.60 0L215.60 0Q189.20-29.40 168.40-53.40L168.40-53.40L168.40-53.40Q162-60.80 155.40-61.40L155.40-61.40L155.40-23.40L155.40-23.40Q155.60-18.40 156.30-15.30L156.30-15.30L156.30-15.30Q157-12.20 159.80-10.10L159.80-10.10L159.80-10.10Q162.60-8 168.40-8L168.40-8L169.60-8L169.60-8Q171.60-8 172.40-7.30L172.40-7.30L172.40-7.30Q173.20-6.60 173.40-3.80L173.40-3.80L173.40-3.80Q173.40-2 172.50-0.70L172.50-0.70L172.50-0.70Q171.60 0.60 169.80 0.60L169.80 0.60L169.80 0.60Q157 0 145 0L145 0L145 0Q134.20 0 121.20 0.60L121.20 0.60Z" fill="#ffffff"></path></g></g><style>text {
  font-size: 64px;
  font-family: Arial Black;
  dominant-baseline: central;
  text-anchor: middle;
}</style></svg>